<?xml version="1.0" encoding="utf-8"?>
<!-- Generator: Adobe Illustrator 19.0.0, SVG Export Plug-In . SVG Version: 6.00 Build 0)  -->
<svg version="1.1" id="Layer_1" xmlns="http://www.w3.org/2000/svg" xmlns:xlink="http://www.w3.org/1999/xlink" x="0px" y="0px"
	 viewBox="0 0 250 100" enable-background="new 0 0 250 100" xml:space="preserve">
<path id="XMLID_3_" d="M84.81,39.01h3.45v0.49l-1.97,0.49v21l1.97,0.49v0.49H78.9v-0.49l1.97-0.49V43.11l-7.71,19.2h-0.98
	l-10.01-19.2V60.5l2.63,0.98v0.49h-6.23v-0.49l2.63-0.98V39.99l-1.97-0.49v-0.49h4.1c1.14,0,2.04,0.24,2.71,0.71
	c0.67,0.47,1.24,1.16,1.72,2.08l7.15,13.68l5.48-13.68c0.37-0.96,0.87-1.67,1.51-2.12C82.52,39.23,83.5,39.01,84.81,39.01z
	 M107.93,47.39c1.54,1.54,2.31,3.67,2.31,6.38c0,2.71-0.77,4.84-2.31,6.38c-1.54,1.54-3.67,2.31-6.38,2.31
	c-2.71,0-4.84-0.77-6.38-2.31c-1.54-1.54-2.31-3.67-2.31-6.38c0-2.71,0.77-4.84,2.31-6.38c1.54-1.54,3.67-2.31,6.38-2.31
	C104.26,45.08,106.39,45.85,107.93,47.39z M104.66,53.77c0-2.91-0.3-4.98-0.9-6.2c-0.6-1.22-1.34-1.84-2.21-1.84
	c-0.88,0-1.61,0.61-2.22,1.84c-0.6,1.23-0.9,3.29-0.9,6.2c0,2.91,0.3,4.98,0.9,6.2c0.6,1.23,1.34,1.84,2.22,1.84
	c0.87,0,1.61-0.61,2.21-1.84C104.36,58.75,104.66,56.68,104.66,53.77z M130.75,60.99l1.97,0.49v0.49h-2.95
	c-1.31,0-2.33-0.4-3.05-1.21c-0.31-0.33-0.55-0.74-0.72-1.25c-0.28,0.55-0.65,1.04-1.08,1.48c-0.98,0.98-2.21,1.48-3.68,1.48
	c-1.29,0-2.44-0.33-3.45-1c-1.01-0.67-1.81-1.65-2.4-2.95c-0.59-1.3-0.89-2.88-0.89-4.74c0-2.8,0.65-4.95,1.95-6.45
	c1.3-1.5,3.06-2.25,5.27-2.25c1.05,0,1.97,0.22,2.76,0.66c0.33,0.15,0.67,0.37,1.02,0.66v-6.4l-1.97-0.49v-0.49h4.27
	c1.97,0,2.95,0.98,2.95,2.95V60.99z M125.5,47.37c-0.24-0.24-0.49-0.46-0.75-0.66c-0.59-0.44-1.16-0.66-1.71-0.66
	c-0.94,0-1.67,0.55-2.18,1.64c-0.51,1.09-0.77,3.12-0.77,6.07c0,2.82,0.23,4.79,0.71,5.89c0.47,1.11,1.06,1.66,1.76,1.66
	c0.81,0,1.54-0.44,2.2-1.31c0.24-0.33,0.49-0.77,0.75-1.31V47.37z M151.44,48.34c0.65,1,0.97,2.1,0.97,3.3
	c0,0.55-0.06,1.02-0.16,1.41l-0.16,0.56c-0.94,0.2-1.96,0.36-3.05,0.49c-2.3,0.33-4.62,0.49-6.96,0.49c0,2.54,0.35,4.35,1.05,5.43
	c0.7,1.08,1.66,1.62,2.89,1.62c0.85,0,1.65-0.2,2.38-0.61c0.73-0.4,1.31-0.94,1.74-1.61c0.43-0.67,0.64-1.35,0.64-2.05h0.82
	c0,0.88-0.26,1.71-0.79,2.49c-0.52,0.79-1.26,1.42-2.2,1.89c-0.94,0.47-2.02,0.71-3.25,0.71c-2.8,0-4.98-0.77-6.53-2.31
	c-1.55-1.54-2.33-3.67-2.33-6.38c0-1.77,0.34-3.31,1.02-4.63c0.68-1.31,1.62-2.32,2.84-3.02c1.21-0.7,2.61-1.05,4.18-1.05
	c1.58,0,2.96,0.3,4.15,0.89C149.88,46.55,150.79,47.35,151.44,48.34z M146.99,50.98c0-1.82-0.24-3.14-0.72-3.99
	c-0.48-0.84-1.06-1.26-1.74-1.26c-1.64,0-2.46,2.68-2.46,8.04c1.4,0,2.54-0.05,3.41-0.16c0.37-0.02,0.77-0.08,1.18-0.16
	c0.02-0.11,0.08-0.35,0.16-0.72C146.94,52.18,146.99,51.6,146.99,50.98z M168.13,45.41c-1.36,0-2.58,0.44-3.68,1.31
	c-0.48,0.39-0.89,0.83-1.21,1.31c-0.2-0.48-0.44-0.89-0.72-1.21c-0.74-0.83-1.76-1.25-3.05-1.25h-2.95v0.49l1.97,0.49v14.44
	l-1.97,0.49v0.49h9.19v-0.49l-1.97-0.49V48.85c0.26-0.44,0.61-0.87,1.05-1.31c0.92-0.87,1.94-1.31,3.05-1.31v4.59l0.39,0.1
	c0.31,0.04,0.61,0.07,0.92,0.07c0.74,0,1.34-0.22,1.79-0.67c0.45-0.45,0.67-1.04,0.67-1.79c0-1.01-0.29-1.78-0.87-2.31
	C170.16,45.67,169.29,45.41,168.13,45.41z M189.67,48.34c0.65,1,0.97,2.1,0.97,3.3c0,0.55-0.06,1.02-0.16,1.41l-0.16,0.56
	c-0.94,0.2-1.96,0.36-3.05,0.49c-2.3,0.33-4.62,0.49-6.96,0.49c0,2.54,0.35,4.35,1.05,5.43c0.7,1.08,1.66,1.62,2.89,1.62
	c0.85,0,1.65-0.2,2.38-0.61c0.73-0.4,1.31-0.94,1.74-1.61c0.43-0.67,0.64-1.35,0.64-2.05h0.82c0,0.88-0.26,1.71-0.79,2.49
	c-0.52,0.79-1.26,1.42-2.2,1.89c-0.94,0.47-2.02,0.71-3.25,0.71c-2.8,0-4.98-0.77-6.53-2.31c-1.55-1.54-2.33-3.67-2.33-6.38
	c0-1.77,0.34-3.31,1.02-4.63c0.68-1.31,1.62-2.32,2.84-3.02c1.21-0.7,2.61-1.05,4.18-1.05c1.58,0,2.96,0.3,4.15,0.89
	C188.1,46.55,189.02,47.35,189.67,48.34z M185.22,50.98c0-1.82-0.24-3.14-0.72-3.99c-0.48-0.84-1.06-1.26-1.74-1.26
	c-1.64,0-2.46,2.68-2.46,8.04c1.4,0,2.54-0.05,3.41-0.16c0.37-0.02,0.77-0.08,1.18-0.16c0.02-0.11,0.08-0.35,0.16-0.72
	C185.17,52.18,185.22,51.6,185.22,50.98z M205.99,60.5c-0.59,0.77-1.28,1.15-2.07,1.15c-0.81,0-1.42-0.37-1.84-1.12
	c-0.42-0.74-0.62-2.12-0.62-4.13V46.39h4.59v-0.82h-4.59v-4.59h-2.3c-1.97,0-2.95,0.98-2.95,2.95v1.64h-2.3v0.82h2.3V56.4
	c0,1.16,0.28,2.2,0.85,3.12c0.57,0.92,1.38,1.64,2.44,2.17c1.06,0.52,2.31,0.79,3.76,0.79c1.33,0,2.41-0.44,3.22-1.33
	c0.81-0.89,1.21-2.14,1.21-3.76h-0.82C206.88,58.7,206.58,59.73,205.99,60.5z M222.76,45.41c-1.36,0-2.58,0.44-3.68,1.31
	c-0.48,0.39-0.89,0.83-1.21,1.31c-0.2-0.48-0.44-0.89-0.72-1.21c-0.74-0.83-1.76-1.25-3.05-1.25h-2.95v0.49l1.97,0.49v14.44
	l-1.97,0.49v0.49h9.19v-0.49l-1.97-0.49V48.85c0.26-0.44,0.61-0.87,1.05-1.31c0.92-0.87,1.94-1.31,3.05-1.31v4.59l0.39,0.1
	c0.31,0.04,0.61,0.07,0.92,0.07c0.74,0,1.34-0.22,1.79-0.67c0.45-0.45,0.67-1.04,0.67-1.79c0-1.01-0.29-1.78-0.87-2.31
	C224.79,45.67,223.92,45.41,222.76,45.41z M246.75,53.77c0,2.71-0.77,4.84-2.31,6.38c-1.54,1.54-3.67,2.31-6.38,2.31
	c-2.71,0-4.84-0.77-6.38-2.31c-1.54-1.54-2.31-3.67-2.31-6.38c0-2.71,0.77-4.84,2.31-6.38c1.54-1.54,3.67-2.31,6.38-2.31
	c2.71,0,4.84,0.77,6.38,2.31C245.98,48.93,246.75,51.06,246.75,53.77z M241.17,53.77c0-2.91-0.3-4.98-0.9-6.2
	c-0.6-1.22-1.34-1.84-2.21-1.84c-0.88,0-1.61,0.61-2.21,1.84c-0.6,1.23-0.9,3.29-0.9,6.2c0,2.91,0.3,4.98,0.9,6.2
	c0.6,1.23,1.34,1.84,2.21,1.84c0.87,0,1.61-0.61,2.21-1.84C240.87,58.75,241.17,56.68,241.17,53.77z M23.61,52.39
	c-0.48,0-0.82,0.35-0.82,0.86c0,0.48,0.33,0.84,0.8,0.84c0.5,0,0.82-0.37,0.82-0.84C24.4,52.75,24.09,52.39,23.61,52.39z
	 M23.61,47.6c-0.48,0-0.82,0.35-0.82,0.86c0,0.48,0.33,0.84,0.8,0.84c0.5,0,0.82-0.37,0.82-0.84C24.4,47.95,24.09,47.6,23.61,47.6z
	 M43.97,38.98c0.08,0.11,0.13,0.24,0.13,0.37v22.76c0,0.13-0.04,0.26-0.13,0.37l-4.04,5.24c-0.11,0.15-0.29,0.24-0.48,0.24H7.54
	c-0.19,0-0.37-0.09-0.48-0.24l-4.04-5.24c-0.08-0.11-0.13-0.24-0.13-0.37V39.36c0-0.13,0.04-0.26,0.13-0.37l4.04-5.24
	c0.11-0.15,0.29-0.24,0.48-0.24h31.92c0.19,0,0.37,0.09,0.48,0.24L43.97,38.98z M42.89,39.56l-3.73-4.84H7.84l-3.73,4.84v22.35
	l3.73,4.84h31.32l3.73-4.84V39.56z M39.71,45.8v9.88c0,2.53-2.06,4.6-4.6,4.6H11.88c-2.53,0-4.6-2.06-4.6-4.6V45.8
	c0-2.53,2.06-4.6,4.6-4.6h23.24C37.65,41.2,39.71,43.27,39.71,45.8z M38.85,45.8c0-2.06-1.67-3.73-3.73-3.73H11.88
	c-2.06,0-3.73,1.67-3.73,3.73v9.88c0,2.06,1.67,3.73,3.73,3.73h23.24c2.06,0,3.73-1.67,3.73-3.73V45.8z M8.68,32.9
	c-0.07-0.15-0.05-0.33,0.06-0.46l5.61-6.79c0.08-0.1,0.2-0.16,0.33-0.16h17.62c0.13,0,0.25,0.06,0.33,0.16l5.61,6.79
	c0.11,0.13,0.13,0.31,0.06,0.46c-0.07,0.15-0.22,0.25-0.39,0.25H9.08C8.91,33.15,8.76,33.05,8.68,32.9z M10,32.28h27l-4.89-5.92
	H14.89L10,32.28z M38.31,68.57c0.07,0.15,0.05,0.33-0.06,0.46l-5.61,6.79c-0.08,0.1-0.2,0.16-0.33,0.16H14.69
	c-0.13,0-0.25-0.06-0.33-0.16l-5.61-6.79c-0.11-0.13-0.13-0.31-0.06-0.46c0.07-0.15,0.22-0.25,0.39-0.25h28.84
	C38.08,68.32,38.24,68.42,38.31,68.57z M37,69.19H10l4.89,5.92H32.1L37,69.19z"/>
<g id="XMLID_1_">
</g>
<g id="XMLID_2_">
</g>
<g id="XMLID_5_">
</g>
<g id="XMLID_6_">
</g>
<g id="XMLID_7_">
</g>
<g id="XMLID_8_">
</g>
</svg>
